# xmcd
#
# Track frame offsets:
#	150
#	16480
#	34256
#	48790
#	65193
#	83259
#	96291
#	111141
#	131602
#	146261
#	162434
#	178686
#	198610
#	213581
#	229959
#	244918
#	258552
#	275873
#
# Disc length: 3913
#
# Revision: 2
# Processed by: cddbd v1.5.1PL0 Copyright (c) Steve Scherf et al.
# Submitted via: CDex 1.51
# Normalized: r1:TSWAP
#
DISCID=0e0f4712
DTITLE=Various Artist - Promo Only Canada Country April 2002
DYEAR=2002
DGENRE=Country
TTITLE0=George Strait - Living And Living Well
TTITLE1=McBride and The Ride - Anything That Touches You
TTITLE2=SheDaisy - Get Over Yourself
TTITLE3=Brett James - Chasin' Amy
TTITLE4=Alan Jackson - Drive (For Daddy Gene)
TTITLE5=Jamie O'Neal - Frantic
TTITLE6=Brad Paisley - I'm Gonna Miss Her
TTITLE7=Sara Evans - I Keep Looking
TTITLE8=Mark Chesnutt - She Was
TTITLE9=Clint Black - Money Or Love
TTITLE10=David Ball - She Always Talked About Old Mexico
TTITLE11=Tracy Lawrence - What A Memory
TTITLE12=Shannon Brown - Untangle My Heart
TTITLE13=Montgomery Gentry - Didn't I
TTITLE14=Chris Cummings - Cowboy Hats
TTITLE15=Ennis Sisters - I'd Never Walk Away
TTITLE16=George Jones - 50,000 Names
TTITLE17=Joe Diffie - This Pretender
EXTD=YEAR: 2002
EXTT0=
EXTT1=
EXTT2=
EXTT3=
EXTT4=
EXTT5=
EXTT6=
EXTT7=
EXTT8=
EXTT9=
EXTT10=
EXTT11=
EXTT12=
EXTT13=
EXTT14=
EXTT15=
EXTT16=
EXTT17=
PLAYORDER=
